<svg xmlns="http://www.w3.org/2000/svg" xmlns:xlink="http://www.w3.org/1999/xlink" width="500" zoomAndPan="magnify" viewBox="0 0 375 374.999991" height="500" preserveAspectRatio="xMidYMid meet" version="1.0"><defs><g/><clipPath id="220a808849"><path d="M 166 93.875 L 183 93.875 L 183 111 L 166 111 Z M 166 93.875 " clip-rule="nonzero"/></clipPath><clipPath id="65b4437491"><path d="M 195 93.875 L 212 93.875 L 212 111 L 195 111 Z M 195 93.875 " clip-rule="nonzero"/></clipPath><clipPath id="75642e36a7"><path d="M 192 139 L 251 139 L 251 223.625 L 192 223.625 Z M 192 139 " clip-rule="nonzero"/></clipPath></defs><path fill="#2ad495" d="M 235.316406 121.910156 C 237.210938 119.382812 236.695312 115.792969 234.164062 113.902344 C 231.632812 112.003906 228.050781 112.523438 226.15625 115.054688 C 217.4375 126.71875 203.539062 133.683594 188.980469 133.683594 C 174.421875 133.683594 160.527344 126.71875 151.804688 115.054688 C 149.914062 112.523438 146.328125 112.003906 143.796875 113.902344 C 141.269531 115.792969 140.753906 119.382812 142.644531 121.910156 C 153.515625 136.449219 170.835938 145.128906 188.980469 145.128906 C 207.125 145.128906 224.449219 136.449219 235.316406 121.910156 " fill-opacity="1" fill-rule="nonzero"/><g clip-path="url(#220a808849)"><path fill="#2ad495" d="M 174.617188 110.097656 C 179.089844 110.097656 182.71875 106.46875 182.71875 101.988281 C 182.71875 97.507812 179.089844 93.878906 174.617188 93.878906 C 170.140625 93.878906 166.511719 97.507812 166.511719 101.988281 C 166.511719 106.46875 170.140625 110.097656 174.617188 110.097656 " fill-opacity="1" fill-rule="nonzero"/></g><g clip-path="url(#65b4437491)"><path fill="#2ad495" d="M 203.347656 110.097656 C 207.820312 110.097656 211.449219 106.46875 211.449219 101.988281 C 211.449219 97.507812 207.820312 93.878906 203.347656 93.878906 C 198.871094 93.878906 195.242188 97.507812 195.242188 101.988281 C 195.242188 106.46875 198.871094 110.097656 203.347656 110.097656 " fill-opacity="1" fill-rule="nonzero"/></g><path fill="#ffc100" d="M 131.34375 138.195312 C 128.203125 137.808594 125.363281 140.058594 124.988281 143.199219 C 124.613281 146.339844 126.851562 149.1875 129.988281 149.5625 C 144.445312 151.289062 157.417969 159.851562 164.699219 172.46875 C 171.976562 185.085938 172.898438 200.613281 167.164062 214.003906 C 165.921875 216.910156 167.265625 220.273438 170.171875 221.519531 C 170.90625 221.832031 171.667969 221.984375 172.421875 221.984375 C 174.640625 221.984375 176.75 220.683594 177.679688 218.511719 C 184.828125 201.820312 183.679688 182.46875 174.605469 166.746094 C 165.535156 151.019531 149.363281 140.347656 131.34375 138.195312 " fill-opacity="1" fill-rule="nonzero"/><path fill="#ffc100" d="M 140.402344 193.742188 C 136.527344 195.980469 135.199219 200.941406 137.4375 204.820312 C 139.671875 208.699219 144.628906 210.027344 148.503906 207.789062 C 152.382812 205.546875 153.710938 200.589844 151.472656 196.710938 C 149.234375 192.832031 144.277344 191.503906 140.402344 193.742188 " fill-opacity="1" fill-rule="nonzero"/><path fill="#ffc100" d="M 137.105469 171.8125 C 134.867188 167.929688 129.914062 166.601562 126.035156 168.84375 C 122.160156 171.082031 120.832031 176.042969 123.070312 179.917969 C 125.308594 183.796875 130.265625 185.128906 134.140625 182.886719 C 138.015625 180.648438 139.34375 175.6875 137.105469 171.8125 " fill-opacity="1" fill-rule="nonzero"/><g clip-path="url(#75642e36a7)"><path fill="#ff0472" d="M 250.117188 144.851562 C 249.742188 141.710938 246.894531 139.480469 243.757812 139.847656 C 225.738281 142 209.570312 152.671875 200.496094 168.398438 C 191.425781 184.121094 190.273438 203.472656 197.421875 220.164062 C 198.351562 222.335938 200.460938 223.636719 202.683594 223.636719 C 203.433594 223.636719 204.195312 223.488281 204.933594 223.171875 C 207.835938 221.925781 209.179688 218.5625 207.9375 215.65625 C 202.203125 202.265625 203.125 186.738281 210.40625 174.121094 C 217.683594 161.503906 230.65625 152.941406 245.113281 151.214844 C 248.25 150.839844 250.488281 147.992188 250.117188 144.851562 " fill-opacity="1" fill-rule="nonzero"/></g><path fill="#ff0472" d="M 249.066406 170.496094 C 245.191406 168.253906 240.234375 169.585938 237.996094 173.460938 C 235.757812 177.339844 237.085938 182.300781 240.960938 184.539062 C 244.835938 186.78125 249.792969 185.449219 252.03125 181.570312 C 254.269531 177.695312 252.941406 172.734375 249.066406 170.496094 " fill-opacity="1" fill-rule="nonzero"/><path fill="#ff0472" d="M 234.699219 195.394531 C 230.824219 193.15625 225.867188 194.484375 223.632812 198.363281 C 221.394531 202.242188 222.722656 207.199219 226.597656 209.441406 C 230.472656 211.679688 235.429688 210.351562 237.667969 206.472656 C 239.90625 202.59375 238.574219 197.632812 234.699219 195.394531 " fill-opacity="1" fill-rule="nonzero"/><g fill="#2ad495" fill-opacity="1"><g transform="translate(105.854222, 262.20306)"><g><path d="M 11.734375 -11.457031 L 11.734375 -7.433594 L 16.445312 -7.433594 C 15.484375 -5.882812 13.796875 -4.886719 11.765625 -4.886719 C 8.636719 -4.886719 6.296875 -7.191406 6.296875 -10.320312 C 6.296875 -13.453125 8.636719 -15.757812 11.765625 -15.757812 C 13.96875 -15.757812 15.757812 -14.621094 16.652344 -12.832031 L 21.195312 -15.140625 C 19.441406 -18.578125 15.859375 -20.917969 11.765625 -20.917969 C 5.882812 -20.917969 1.167969 -16.171875 1.167969 -10.320312 C 1.167969 -4.472656 5.882812 0.273438 11.765625 0.273438 C 17.617188 0.273438 22.363281 -4.472656 22.363281 -10.320312 L 22.363281 -11.457031 Z M 11.734375 -11.457031 "/></g></g></g><g fill="#2ad495" fill-opacity="1"><g transform="translate(130.364146, 262.20306)"><g><path d="M 10.632812 0.273438 C 15.585938 0.273438 19.472656 -2.71875 19.472656 -6.570312 L 19.472656 -20.644531 L 14.210938 -20.644531 L 14.210938 -7.570312 C 14.210938 -5.746094 12.628906 -4.300781 10.632812 -4.300781 C 8.636719 -4.300781 7.054688 -5.746094 7.054688 -7.570312 L 7.054688 -20.644531 L 1.789062 -20.644531 L 1.789062 -6.570312 C 1.789062 -2.71875 5.675781 0.273438 10.632812 0.273438 Z M 10.632812 0.273438 "/></g></g></g><g fill="#2ad495" fill-opacity="1"><g transform="translate(152.638421, 262.20306)"><g><path d="M 2.0625 0 L 7.328125 0 L 7.328125 -20.644531 L 2.0625 -20.644531 Z M 2.0625 0 "/></g></g></g><g fill="#2ad495" fill-opacity="1"><g transform="translate(163.012204, 262.20306)"><g><path d="M 1.890625 0 L 9.050781 0 C 14.726562 0 19.371094 -4.609375 19.371094 -10.320312 C 19.371094 -16.035156 14.726562 -20.644531 9.050781 -20.644531 L 1.890625 -20.644531 Z M 7.15625 -4.574219 L 7.15625 -16.066406 L 9.050781 -16.066406 C 11.90625 -16.066406 14.140625 -13.554688 14.140625 -10.320312 C 14.140625 -7.085938 11.90625 -4.574219 9.050781 -4.574219 Z M 7.15625 -4.574219 "/></g></g></g><g fill="#2ad495" fill-opacity="1"><g transform="translate(184.564196, 262.20306)"><g><path d="M 14.554688 0 L 20.195312 0 L 12.730469 -20.644531 L 6.847656 -20.644531 L -0.621094 0 L 5.058594 0 L 6.191406 -3.613281 L 13.417969 -3.613281 Z M 7.535156 -7.878906 L 9.804688 -15.171875 L 12.109375 -7.878906 Z M 7.535156 -7.878906 "/></g></g></g><g fill="#2ad495" fill-opacity="1"><g transform="translate(205.187535, 262.20306)"><g><path d="M 16.722656 -20.644531 L 16.722656 -8.015625 L 7.398438 -20.644531 L 1.890625 -20.644531 L 1.890625 0 L 7.15625 0 L 7.15625 -12.660156 L 16.445312 0 L 21.984375 0 L 21.984375 -20.644531 Z M 16.722656 -20.644531 "/></g></g></g><g fill="#2ad495" fill-opacity="1"><g transform="translate(230.075801, 262.20306)"><g><path d="M 11.765625 0.273438 C 15.859375 0.273438 19.441406 -2.0625 21.195312 -5.503906 L 16.652344 -7.808594 C 15.757812 -6.019531 13.96875 -4.886719 11.765625 -4.886719 C 8.636719 -4.886719 6.296875 -7.191406 6.296875 -10.320312 C 6.296875 -13.453125 8.636719 -15.757812 11.765625 -15.757812 C 13.96875 -15.757812 15.757812 -14.621094 16.652344 -12.832031 L 21.195312 -15.140625 C 19.441406 -18.578125 15.859375 -20.917969 11.765625 -20.917969 C 5.882812 -20.917969 1.167969 -16.171875 1.167969 -10.320312 C 1.167969 -4.472656 5.882812 0.273438 11.765625 0.273438 Z M 11.765625 0.273438 "/></g></g></g><g fill="#2ad495" fill-opacity="1"><g transform="translate(253.10676, 262.20306)"><g><path d="M 14.863281 -16.066406 L 14.863281 -20.644531 L 2.0625 -20.644531 L 2.0625 0 L 14.863281 0 L 14.863281 -4.574219 L 7.328125 -4.574219 L 7.328125 -8.050781 L 13.695312 -8.050781 L 13.695312 -12.59375 L 7.328125 -12.59375 L 7.328125 -16.066406 Z M 14.863281 -16.066406 "/></g></g></g></svg>